<?xml version="1.0" encoding="iso-8859-1"?>
<!-- Generator: Adobe Illustrator 19.0.0, SVG Export Plug-In . SVG Version: 6.00 Build 0)  -->
<svg version="1.1" id="Capa_1" xmlns="http://www.w3.org/2000/svg" xmlns:xlink="http://www.w3.org/1999/xlink" x="0px" y="0px"
	 viewBox="0 0 511.999 511.999" style="enable-background:new 0 0 511.999 511.999;" xml:space="preserve">
<g>
	<g>
		<g>
			<path d="M343.568,181.782c4.142,0,7.501-3.358,7.501-7.501v-14.781c0-4.142-3.358-7.501-7.501-7.501
				c-4.142,0-7.501,3.358-7.501,7.501v14.781C336.068,178.424,339.426,181.782,343.568,181.782z"/>
			<path d="M168.43,152.001c-4.142,0-7.501,3.358-7.501,7.501v14.781c0,4.142,3.358,7.501,7.501,7.501
				c4.142,0,7.501-3.358,7.501-7.501v-14.781C175.931,155.358,172.572,152.001,168.43,152.001z"/>
			<path d="M269.295,303.59l-13.296,13.296l-13.296-13.296c-2.929-2.929-7.679-2.929-10.608,0c-2.929,2.929-2.929,7.679,0,10.608
				l18.599,18.599c1.464,1.464,3.384,2.197,5.303,2.197c1.919,0,3.839-0.732,5.303-2.197l18.599-18.599
				c2.929-2.929,2.929-7.679,0-10.608C276.973,300.66,272.224,300.66,269.295,303.59z"/>
			<path d="M210.861,339.464l-13.296,13.296l-13.296-13.296c-2.929-2.929-7.679-2.929-10.608,0s-2.929,7.679,0,10.607l18.599,18.599
				c1.464,1.464,3.384,2.197,5.303,2.197s3.839-0.733,5.303-2.197l18.599-18.599c2.929-2.929,2.929-7.679,0-10.607
				C218.54,336.535,213.791,336.535,210.861,339.464z"/>
			<path d="M476.671,276.382c-3.244-3.434-6.85-6.51-10.754-9.186c0.012-1.001,0.036-1.995,0.036-3.002
				c0-21.791-2.819-43.359-8.364-64.148c1.789-8.078,2.74-16.465,2.74-25.073c0-17.878-4.131-35.49-12.004-51.395
				c30.052-16.477,42.641-45.813,47.9-68.334c2.206-9.448-1.273-18.907-9.08-24.689c-7.827-5.796-17.918-6.365-26.337-1.485
				c-33.748,19.563-72.187,29.937-111.19,30.018C320.401,43.17,288.919,35.08,256.001,35.08c-32.916,0-64.396,8.089-93.612,24.004
				c-18.139-0.037-36.252-2.292-53.844-6.716c-4.015-1.008-8.093,1.427-9.104,5.444c-1.01,4.017,1.427,8.093,5.444,9.104
				c18.935,4.762,38.437,7.178,57.961,7.178h1.467c0.02,0,0.039,0,0.058,0h183.336c0.008,0,0.016,0.002,0.023,0.002
				c0.008,0,0.015-0.002,0.022-0.002h1.4c41.802,0,83.012-11.081,119.177-32.044c4.751-2.756,8.769-0.266,9.887,0.562
				c1.11,0.822,4.637,3.917,3.398,9.223c-4.885,20.924-16.935,48.592-46.594,61.585c-1.961,0.859-3.462,2.516-4.124,4.553
				c-0.661,2.037-0.421,4.259,0.662,6.107c9.007,15.38,13.768,32.979,13.768,50.896c0,55.625-45.254,100.88-100.88,100.88
				c-22.385,0-44.017-7.441-61.616-21.033l12.871-20.017c0.22-0.342,0.41-0.695,0.608-1.046
				c13.118,10.762,29.885,17.231,48.137,17.231c41.915,0,76.016-34.101,76.016-76.017c0-41.915-34.101-76.016-76.016-76.016
				c-41.916,0-76.017,34.101-76.017,76.016c0,4.742,0.458,9.377,1.293,13.881c-8.62-4.375-18.829-4.375-27.449,0
				c0.835-4.504,1.293-9.139,1.293-13.881c0-41.915-34.101-76.016-76.017-76.016c-41.915,0-76.016,34.101-76.016,76.016
				c0,41.916,34.101,76.017,76.016,76.017c18.251,0,35.019-6.469,48.137-17.231c0.198,0.35,0.388,0.703,0.608,1.045l12.871,20.017
				c-17.598,13.592-39.231,21.033-61.616,21.033c-55.625,0-100.88-45.254-100.88-100.88c0-17.915,4.761-35.515,13.768-50.896
				c1.082-1.848,1.323-4.07,0.661-6.107s-2.163-3.694-4.124-4.553c-29.658-12.992-41.708-40.66-46.594-61.585
				c-1.239-5.304,2.288-8.4,3.398-9.222c1.118-0.828,5.137-3.317,9.888-0.563c6.49,3.762,13.239,7.257,20.059,10.387
				c3.763,1.728,8.217,0.077,9.946-3.688c1.727-3.765,0.077-8.218-3.688-9.946c-6.388-2.932-12.711-6.205-18.793-9.731
				c-8.419-4.881-18.51-4.311-26.337,1.485c-7.807,5.78-11.286,15.241-9.08,24.689c5.259,22.521,17.848,51.857,47.901,68.334
				c-7.874,15.906-12.005,33.517-12.005,51.395c0,8.608,0.951,16.996,2.74,25.073c-5.545,20.788-8.364,42.357-8.364,64.148
				c0,1.008,0.012,2.009,0.024,3.01c-3.899,2.673-7.502,5.747-10.743,9.178c-24.575,26.015-51.362,95.294-23.416,121.694
				c7.594,7.174,18.022,10.069,29.599,10.068c17.543-0.001,37.704-6.658,54.602-15.141c17.245,16.403,38.661,29.202,63.937,38.236
				v17.562c0,20.638,16.789,37.427,37.427,37.427s37.427-16.789,37.427-37.427v-2.991c6.956,0.423,14.019,0.646,21.095,0.646
				c7.075,0,14.138-0.223,21.095-0.646v2.991c0,20.638,16.79,37.427,37.427,37.427c20.638,0,37.427-16.789,37.427-37.427v-17.552
				c3.432-1.228,6.814-2.524,10.09-3.887c3.825-1.591,5.635-5.981,4.044-9.806c-0.852-2.047-2.508-3.509-4.448-4.19
				c22.058-27.416,34.435-62.707,34.435-99.432c0-11.322-1.178-22.581-3.477-33.566c23.969-10.993,43.564-29.926,55.403-53.413
				c1.96,12.252,2.957,24.705,2.957,37.239c0,2.261-0.043,4.493-0.105,6.711c-0.002,0.045-0.003,0.09-0.005,0.135
				c-1.283,44.441-15.155,80.367-41.342,107.191c-0.263,0.234-0.515,0.482-0.746,0.756c-5.729,5.78-12.024,11.143-18.909,16.061
				c-3.371,2.407-4.152,7.091-1.744,10.463c1.464,2.05,3.769,3.142,6.109,3.142c1.508,0,3.032-0.454,4.353-1.397
				c6.172-4.408,11.931-9.176,17.291-14.268c16.906,8.493,37.08,15.158,54.634,15.157c11.574,0,22.007-2.895,29.599-10.068
				C528.032,371.675,501.245,302.396,476.671,276.382z M199.772,59.092c18.08-5.988,36.889-9.01,56.227-9.01
				c19.338,0,38.147,3.022,56.227,9.01H199.772z M344.447,113.957c33.644,0,61.015,27.371,61.015,61.015
				c0,33.645-27.371,61.016-61.015,61.016c-33.645,0-61.016-27.371-61.016-61.016C283.432,141.329,310.803,113.957,344.447,113.957z
				 M167.551,235.987c-33.644,0-61.015-27.371-61.015-61.016c0-33.644,27.371-61.015,61.015-61.015
				c33.645,0,61.016,27.371,61.016,61.015C228.567,208.616,201.195,235.987,167.551,235.987z M228.913,226.69
				c-1.657-2.578-1.208-5.938,1.068-7.991l15.688-14.14v0.001c5.889-5.307,14.771-5.308,20.659-0.001l15.688,14.14
				c2.276,2.052,2.726,5.413,1.068,7.991l-26.518,41.24c-0.06,0.093-0.199,0.31-0.567,0.31c-0.368,0-0.508-0.217-0.567-0.31
				L228.913,226.69z M51.916,392.362c-9.483,1.477-22.331,1.774-29.703-5.191c-18.583-17.555,1.978-77.156,24.019-100.488
				c0.255-0.27,0.532-0.518,0.793-0.783c3.153,34.314,13.964,63.927,32.272,88.244c1.921,2.552,3.945,5.018,6.02,7.443
				C73.782,387,62.179,390.765,51.916,392.362z M103.324,379.09c-0.288-0.354-0.604-0.674-0.944-0.964
				c-22.849-23.491-39.785-57.587-41.224-107.058c-0.001-0.057-0.002-0.113-0.005-0.17c-0.063-2.207-0.105-4.435-0.105-6.705
				c0-12.534,0.996-24.986,2.957-37.239c11.839,23.488,31.434,42.421,55.403,53.413c-2.299,10.984-3.477,22.244-3.477,33.566
				c0,35.208,11.372,69.101,31.747,95.998C132.198,402.616,116.776,392.654,103.324,379.09z M219.903,448.801
				c0,12.366-10.061,22.426-22.426,22.426c-12.366,0-22.426-10.06-22.426-22.426v-19.692c0-0.765,0.039-1.521,0.114-2.267
				c0.002-0.015,0.003-0.031,0.005-0.046c1.161-11.283,10.722-20.112,22.307-20.112c12.366,0,22.426,10.06,22.426,22.426V448.801z
				 M336.947,448.801c0,12.366-10.06,22.426-22.426,22.426c-12.366,0-22.426-10.06-22.426-22.426v-19.692
				c0-12.366,10.061-22.426,22.426-22.426c11.585,0,21.145,8.83,22.307,20.113c0.002,0.016,0.003,0.031,0.005,0.047
				c0.075,0.745,0.114,1.501,0.114,2.266V448.801z M345.905,408.755c-6.68-10.266-18.248-17.072-31.383-17.072
				c-20.638,0-37.427,16.789-37.427,37.427v1.678c-13.897,0.882-28.293,0.882-42.19,0v-1.678c0-20.638-16.789-37.427-37.427-37.427
				c-13.135,0-24.703,6.807-31.383,17.072c-22.459-25.36-35.163-59.326-35.163-94.82c0-9.488,0.908-18.922,2.684-28.154
				c10.738,3.295,22.132,5.073,33.936,5.073c25.279,0,49.736-8.244,69.766-23.359l5.496,8.548c2.898,4.507,7.828,7.198,13.186,7.198
				c5.358,0,10.288-2.691,13.185-7.198l5.496-8.549c20.031,15.115,44.487,23.36,69.766,23.36c11.803,0,23.198-1.779,33.936-5.073
				c1.776,9.233,2.685,18.667,2.685,28.154C381.067,349.429,368.364,383.395,345.905,408.755z M489.785,387.171
				c-7.373,6.964-20.222,6.667-29.703,5.19c-10.257-1.596-21.854-5.357-33.384-10.768c8.374-9.769,15.461-20.539,21.192-32.248
				c9.208-18.814,14.914-40.093,17.071-63.457c0.265,0.268,0.546,0.52,0.805,0.794C487.806,310.014,508.368,369.616,489.785,387.171
				z"/>
			<path d="M327.728,339.464l-13.296,13.296l-13.296-13.296c-2.929-2.929-7.679-2.929-10.608,0s-2.929,7.679,0,10.607l18.599,18.599
				c1.464,1.464,3.384,2.197,5.303,2.197s3.839-0.733,5.303-2.197l18.599-18.599c2.929-2.929,2.929-7.679,0-10.607
				C335.407,336.535,330.657,336.535,327.728,339.464z"/>
		</g>
	</g>
</g>
<g>
</g>
<g>
</g>
<g>
</g>
<g>
</g>
<g>
</g>
<g>
</g>
<g>
</g>
<g>
</g>
<g>
</g>
<g>
</g>
<g>
</g>
<g>
</g>
<g>
</g>
<g>
</g>
<g>
</g>
</svg>
