<?xml version="1.0" encoding="iso-8859-1"?>
<!-- Generator: Adobe Illustrator 19.0.0, SVG Export Plug-In . SVG Version: 6.00 Build 0)  -->
<svg version="1.1" id="Capa_1" xmlns="http://www.w3.org/2000/svg" xmlns:xlink="http://www.w3.org/1999/xlink" x="0px" y="0px"
	 viewBox="0 0 512 512" style="enable-background:new 0 0 512 512;" xml:space="preserve">
<g>
	<g>
		<g>
			<path d="M344.991,99.176c0-5.784-2.253-11.224-6.344-15.315c-8.443-8.442-22.183-8.444-30.629,0
				c-2.929,2.929-2.929,7.677-0.001,10.605c2.929,2.93,7.677,2.929,10.606,0.001c2.596-2.598,6.82-2.597,9.417-0.001
				c1.258,1.259,1.951,2.931,1.951,4.71c0,1.778-0.693,3.45-1.951,4.708c-2.929,2.929-2.929,7.677,0,10.605
				c1.465,1.465,3.384,2.197,5.304,2.197c1.919,0,3.839-0.732,5.303-2.196C342.737,110.399,344.991,104.961,344.991,99.176z"/>
			<path d="M499.549,211.905c7.241-17.967,11.147-37.244,11.366-57.052c0.431-38.973-13.418-75.605-39.145-103.979
				c7.63-7.228,16.943-12.579,27.046-15.514c3.978-1.155,6.266-5.316,5.11-9.293c-1.155-3.978-5.317-6.266-9.293-5.11
				c-12.524,3.638-24.055,10.304-33.469,19.313C416.819,0.08,353.957-9.072,300.173,12.512C289.935,4.404,277.351,0,264.169,0
				c-0.293,0-0.587,0.002-0.879,0.006c-15.189,0.226-29.472,6.267-40.215,17.011c-18.263,18.263-22.033,45.629-10.609,67.682
				c-4.532-0.208-9.164,0.475-13.641,2.156C165.266,99.45,116.22,132.528,87.168,162.16c-15.965,16.282-24.375,38.737-23.075,61.607
				c0.382,6.713,1.019,14.167,1.884,22.198c-19.66,18.208-37.458,41.194-49.165,63.612C9.046,324.45-2.641,352.148,6.346,370.549
				c0.035,0.072,0.072,0.147,0.109,0.223c-14.087,38.386-4.74,81.331,24.351,110.421c20.131,20.131,46.891,30.809,74.19,30.807
				c12.148,0,24.405-2.124,36.226-6.461c0.075,0.038,0.152,0.079,0.227,0.115c4.401,2.149,9.655,3.206,15.612,3.206
				c14.81,0,33.949-6.535,55.019-19.067c19.497-11.597,38.47-27.102,53.924-43.765c8.061,0.866,15.525,1.498,22.228,1.88
				c1.544,0.088,3.084,0.131,4.623,0.131c21.248,0,41.801-8.318,56.985-23.205c16.983-16.652,35.584-40.27,51.036-64.8
				c2.208-3.504,1.156-8.134-2.348-10.342c-3.505-2.208-8.135-1.157-10.342,2.349c-14.857,23.584-32.66,46.212-48.846,62.083
				c-13.275,13.016-31.586,19.874-50.255,18.81c-3.522-0.2-7.275-0.475-11.222-0.818c1.995-2.565,3.898-5.138,5.687-7.71
				c9.412-13.54,14.28-29.585,14.079-46.399c-0.342-28.584-3.903-77.794-12.869-130.184c-0.088-0.512-0.18-1.037-0.27-1.554
				c48.317,9.682,88.748,22.601,117.408,37.561c8.697,4.541,12.657,14.892,9.208,24.078c-1.664,4.432-3.767,9.284-6.253,14.425
				c-1.803,3.73-0.242,8.213,3.487,10.017c1.052,0.509,2.164,0.75,3.26,0.75c2.786,0,5.463-1.56,6.756-4.236
				c2.684-5.551,4.97-10.827,6.792-15.685c1.68-4.475,2.362-9.105,2.155-13.636c8.358,4.33,17.477,6.484,26.579,6.484
				c14.91,0,29.765-5.759,41.104-17.098c10.744-10.745,16.786-25.027,17.01-40.217C512.192,235.243,507.797,222.356,499.549,211.905
				z M233.68,27.622c13.751-13.75,34.248-16.361,50.581-7.677c-13.403,7.199-26.012,16.46-37.338,27.786
				c-8.478,8.478-15.911,17.786-22.231,27.795C217.612,59.601,220.76,40.542,233.68,27.622z M41.411,470.587
				c-23.283-23.283-31.808-56.92-23.008-88.065c11.427,7.352,34.147,17.58,80.568,30.511c5.519,19.778,11.106,37.136,16.457,51.031
				c5.431,14.102,10.111,23.353,14.102,29.518C98.372,502.407,64.708,493.884,41.411,470.587z M271.233,415.842
				c-15.819,22.757-40.798,45.582-66.82,61.06c-24.38,14.501-45.985,20.35-56.383,15.275c-0.232-0.114-0.481-0.267-0.741-0.452
				c-0.277-0.263-0.572-0.503-0.882-0.72c-6.151-5.633-18.424-28.616-34.024-85.689c-0.054-0.242-0.119-0.48-0.196-0.715
				c-1.768-6.489-3.578-13.414-5.427-20.801c-1.006-4.018-5.076-6.462-9.096-5.455c-4.018,1.005-6.46,5.078-5.455,9.095
				c0.737,2.947,1.479,5.843,2.223,8.711c-56.898-16.496-70.569-27.339-73.74-30.966c-0.052-0.065-0.108-0.126-0.162-0.189
				c-0.426-0.512-0.625-0.857-0.709-1.029c-7.988-16.358,11.775-61.98,48.435-99.324c3.58,26.481,9.08,57.258,15.888,88.354
				c0.886,4.047,4.886,6.605,8.93,5.723c4.046-0.886,6.607-4.884,5.723-8.929c-10.586-48.358-17.962-95.788-19.729-126.876
				c-1.061-18.664,5.794-36.981,18.81-50.255c27.747-28.302,74.403-59.823,106.217-71.765c9.184-3.45,19.537,0.51,24.078,9.208
				c11.833,22.669,27.901,68.599,39.522,127.182c0.042,0.683,0.173,1.347,0.39,1.978c8.091,41.345,13.943,88.872,14.543,138.918
				C282.793,391.859,278.852,404.881,271.233,415.842z M419.866,279.652c-2.92-3.687-6.631-6.824-11.03-9.121
				c-31.513-16.45-74.306-29.941-127.249-40.123c-7.685-39.817-20.336-89.35-40.118-127.244c-2.296-4.399-5.434-8.11-9.121-11.031
				c6.665-12.382,15.114-23.729,25.18-33.795c55.35-55.35,144.37-56.386,198.445-2.311c54.074,54.074,53.038,143.095-2.311,198.443
				C443.595,264.539,432.248,272.986,419.866,279.652z M484.378,278.32c-12.92,12.919-31.979,16.067-47.903,8.988
				c10.009-6.319,19.315-13.753,27.794-22.231c11.194-11.194,20.52-23.749,27.821-37.274
				C500.73,244.124,498.11,264.587,484.378,278.32z"/>
			<path d="M412.824,167.01c-5.786,0-11.224,2.253-15.315,6.344c-2.929,2.929-2.928,7.677,0.001,10.605
				c2.93,2.928,7.677,2.929,10.606-0.001c1.258-1.258,2.93-1.95,4.708-1.95c1.778,0,3.451,0.692,4.709,1.951
				c1.258,1.258,1.951,2.93,1.951,4.708c0,1.779-0.693,3.451-1.951,4.71c-2.929,2.929-2.928,7.677,0,10.605
				c1.465,1.464,3.384,2.196,5.303,2.196c1.919,0,3.839-0.732,5.304-2.197c4.091-4.091,6.344-9.529,6.344-15.314
				s-2.253-11.224-6.344-15.313C424.047,169.261,418.609,167.01,412.824,167.01z"/>
			<path d="M366.483,158.76c-3.588,0.244-7.105-1.066-9.641-3.602c-2.537-2.537-3.85-6.052-3.603-9.642
				c0.284-4.132-2.836-7.711-6.967-7.995c-4.139-0.271-7.711,2.836-7.995,6.968c-0.544,7.916,2.358,15.671,7.96,21.274
				c5.158,5.156,12.136,8.023,19.387,8.023c0.627,0,1.257-0.021,1.887-0.064c4.133-0.284,7.251-3.864,6.968-7.995
				C374.194,161.595,370.617,158.483,366.483,158.76z"/>
		</g>
	</g>
</g>
<g>
</g>
<g>
</g>
<g>
</g>
<g>
</g>
<g>
</g>
<g>
</g>
<g>
</g>
<g>
</g>
<g>
</g>
<g>
</g>
<g>
</g>
<g>
</g>
<g>
</g>
<g>
</g>
<g>
</g>
</svg>
