<?xml version="1.0" encoding="iso-8859-1"?>
<!-- Generator: Adobe Illustrator 19.0.0, SVG Export Plug-In . SVG Version: 6.00 Build 0)  -->
<svg version="1.1" id="Layer_1" xmlns="http://www.w3.org/2000/svg" xmlns:xlink="http://www.w3.org/1999/xlink" x="0px" y="0px"
	 viewBox="0 0 512.001 512.001" style="enable-background:new 0 0 512.001 512.001;" xml:space="preserve">
<g>
	<g>
		<circle cx="199.106" cy="173.538" r="15.734"/>
	</g>
</g>
<g>
	<g>
		<circle cx="313.072" cy="173.538" r="15.734"/>
	</g>
</g>
<g>
	<g>
		<path d="M420.586,434.267c-0.983-14.086-3.555-27.874-10.223-40.995c-10.5-20.66-28.444-37.059-49.685-46.207
			c-20.422-8.795-41.256-8.195-63.007-8.195v-23.604c37.027-12.584,66.578-41.49,80.041-78.104
			c24.263-1.802,43.456-22.105,43.456-46.82c0-21.63-15.119-40.365-35.55-45.532v-15.282c0-9.442-1.028-18.88-3.052-28.033
			c0,0-0.059-0.269-0.066-0.298c-6.312-28.278-22.248-53.96-44.872-72.313C314.665,10.257,285.708,0,256.088,0
			c-29.619,0-58.577,10.257-81.538,28.884c-22.624,18.355-38.56,44.035-44.877,72.332l-0.052,0.235
			c-2.032,9.177-3.062,18.624-3.062,28.078v15.282c-20.431,5.167-35.55,23.901-35.55,45.532c0,24.715,19.193,45.017,43.455,46.82
			c13.463,36.614,43.015,65.521,80.041,78.104v23.604c-15.785,0-31.677-0.974-47.139,2.84
			c-18.409,4.541-35.585,14.227-48.721,27.935c-18.228,19.022-28.404,45.488-27.8,71.811c0.444,19.34,0.162,38.733,0.162,58.089
			c0,1.487,0,2.973,0,4.461c0,4.415,3.579,7.993,7.993,7.993h56.857h200.457h56.857c4.414,0,7.993-3.578,7.993-7.993
			c0-12.655,0-25.311,0-37.967C421.167,455.386,421.316,444.744,420.586,434.267z M382.89,219.069
			c3.873-18.636,2.727-37.852,2.727-56.773c0-0.05,0.043-0.715,0-0.732c11.466,4.599,19.564,15.915,19.564,28.777
			c0,14.146-9.531,26.11-22.51,29.802C382.75,219.786,382.816,219.427,382.89,219.069z M106.997,190.341
			c0-12.862,8.099-24.179,19.564-28.777c0,19.151-1.213,38.623,2.727,57.504c0.075,0.358,0.141,0.717,0.218,1.075
			C116.529,216.45,106.997,204.487,106.997,190.341z M147.869,496.015h-40.872v-57.518c0-1.291,0.039-2.571,0.098-3.847
			c0.013-0.284,0.026-0.566,0.042-0.848c0.071-1.283,0.163-2.562,0.292-3.829c0.002-0.021,0.005-0.043,0.007-0.064
			c0.135-1.318,0.305-2.626,0.501-3.926c0.017-0.116,0.034-0.233,0.051-0.35c3.884-25.055,18.933-46.46,39.881-58.979V496.015z
			 M320.875,354.856l-42.112,59.102l-6.317-27.003l10.917-19.073c1.568-2.739,1.377-6.145-0.487-8.691l-3.174-4.335h9.975H320.875z
			 M259.313,377.722h-6.447l-7.598-13.276l7.019-9.589h7.607l7.019,9.589L259.313,377.722z M266.402,431.297l-10.311,14.475
			l-7.591-10.653l-2.725-3.825l8.793-37.588h3.038L266.402,431.297z M263.947,338.87h-15.716h-17.737v-19.292
			c0.821,0.164,1.643,0.314,2.467,0.463c16.074,2.894,32.706,2.749,48.723-0.463v19.292H263.947z M184.622,41.298
			c20.121-16.322,45.502-25.313,71.467-25.313c25.965,0,51.345,8.99,71.467,25.313c18.977,15.394,32.584,36.656,38.572,60.16
			c-0.034,0.044-0.067,0.086-0.102,0.13c-9.471,11.769-29.023,4.795-29.023-10.22c0-4.415-3.579-7.993-7.993-7.993
			c-4.414,0-7.993,3.578-7.993,7.993c0,8.996-7.318,16.315-16.315,16.315c-8.996,0-16.315-7.318-16.315-16.315
			c0-4.415-3.578-7.993-7.993-7.993c-4.414,0-7.993,3.578-7.993,7.993c0,5.623-2.859,10.59-7.199,13.525
			c-2.605,1.761-5.742,2.79-9.115,2.79c-7.309,0-13.511-4.831-15.579-11.468c-0.477-1.531-0.734-3.16-0.734-4.846
			c0-4.415-3.579-7.993-7.993-7.993s-7.993,3.578-7.993,7.993c0,8.996-7.319,16.315-16.315,16.315
			c-8.996,0-16.315-7.318-16.315-16.315c0-4.415-3.579-7.993-7.993-7.993s-7.993,3.578-7.993,7.993c0,1.687-0.258,3.314-0.734,4.846
			c-0.318,1.021-0.734,1.999-1.237,2.924c-0.753,1.386-1.704,2.653-2.811,3.761c-6.673,6.673-18.336,6.032-24.242-1.314
			c-0.033-0.042-0.066-0.084-0.099-0.126C152.039,77.955,165.647,56.691,184.622,41.298z M206.037,294.48
			c-28.372-13.99-49.95-40.093-58.902-70.338c-0.483-1.632-0.929-3.276-1.337-4.931c-5.381-21.792-3.25-45.397-3.25-67.682v-22.001
			c0-3.349,0.147-6.696,0.44-10.027c6.694,3.773,14.758,5.056,22.289,3.526c3.526-0.716,6.924-2.025,10.019-3.862
			c0.75-0.445,8.404-5.944,7.873-6.55c5.925,6.769,14.626,11.051,24.307,11.051s18.382-4.283,24.308-11.051
			c5.925,6.769,14.626,11.051,24.307,11.051c3.631,0,7.123-0.602,10.383-1.712c1.087-0.37,2.147-0.796,3.179-1.276
			c4.125-1.917,7.782-4.679,10.744-8.064c5.925,6.768,14.626,11.051,24.307,11.051c9.681,0,18.382-4.283,24.308-11.051
			c-0.496,0.566,6.822,5.911,7.539,6.348c2.953,1.801,6.193,3.121,9.565,3.893c7.752,1.773,16.149,0.552,23.078-3.356
			c0.293,3.33,0.44,6.679,0.44,10.027v22.001c0,39.463,1.791,78.294-24.327,110.763c-19.783,24.593-49.792,40.307-81.201,42.984
			C244.195,306.972,223.975,303.328,206.037,294.48z M222.502,354.854v0.001h9.975l-3.174,4.335
			c-1.864,2.547-2.055,5.952-0.487,8.691l10.917,19.073l-6.315,26.995l-42.108-59.095H222.502z M348.326,496.015h-0.002h-184.47
			V359.28c2.986-1.012,6.043-1.868,9.169-2.542l65.862,92.433l10.699,15.015c0.375,0.526,0.808,0.999,1.287,1.412
			c1.435,1.239,3.284,1.943,5.223,1.943c0.233,0,0.464-0.022,0.694-0.042c0.088-0.007,0.178-0.005,0.266-0.016
			c0.188-0.022,0.37-0.065,0.555-0.101c0.127-0.025,0.257-0.039,0.382-0.069c0.079-0.019,0.156-0.05,0.233-0.071
			c1.747-0.484,3.303-1.544,4.379-3.054l76.56-107.447c3.124,0.672,6.178,1.528,9.163,2.54V496.015z M364.31,496.015v-129.36
			c20.947,12.519,35.996,33.924,39.88,58.979c0.018,0.116,0.034,0.233,0.052,0.35c0.196,1.299,0.366,2.608,0.5,3.926
			c0.002,0.021,0.005,0.043,0.007,0.064c0.129,1.267,0.221,2.546,0.292,3.829c0.016,0.282,0.029,0.565,0.042,0.848
			c0.059,1.276,0.098,2.557,0.098,3.847v57.517H364.31z"/>
	</g>
</g>
<g>
	<g>
		<path d="M303.116,230.212c-2.572-3.588-7.564-4.416-11.153-1.843c-7.498,5.371-21.244,8.708-35.871,8.708
			c-14.634,0-28.381-3.339-35.878-8.713c-3.587-2.57-8.581-1.749-11.153,1.839s-1.749,8.581,1.839,11.154
			c10.224,7.33,27.118,11.706,45.191,11.706c18.065,0,34.955-4.374,45.181-11.699C304.862,238.793,305.688,233.8,303.116,230.212z"
			/>
	</g>
</g>
<g>
</g>
<g>
</g>
<g>
</g>
<g>
</g>
<g>
</g>
<g>
</g>
<g>
</g>
<g>
</g>
<g>
</g>
<g>
</g>
<g>
</g>
<g>
</g>
<g>
</g>
<g>
</g>
<g>
</g>
</svg>
