<?xml version="1.0" encoding="iso-8859-1"?>
<!-- Generator: Adobe Illustrator 19.0.0, SVG Export Plug-In . SVG Version: 6.00 Build 0)  -->
<svg version="1.1" id="Layer_1" xmlns="http://www.w3.org/2000/svg" xmlns:xlink="http://www.w3.org/1999/xlink" x="0px" y="0px"
	 viewBox="0 0 512 512" style="enable-background:new 0 0 512 512;" xml:space="preserve">
<g>
	<g>
		<path d="M245.826,167.901c-10.882-10.883-28.591-10.882-39.472,0c-3.208,3.206-3.208,8.405-0.001,11.612
			c3.205,3.206,8.404,3.206,11.611,0c4.481-4.48,11.768-4.481,16.251,0c1.603,1.603,3.705,2.405,5.805,2.405
			c2.101,0,4.203-0.801,5.807-2.405C249.034,176.306,249.034,171.107,245.826,167.901z"/>
	</g>
</g>
<g>
	<g>
		<path d="M305.648,167.901c-10.881-10.882-28.59-10.883-39.472,0c-3.208,3.206-3.208,8.405-0.001,11.612
			c3.208,3.206,8.407,3.206,11.611,0c4.482-4.481,11.77-4.48,16.251,0c1.603,1.603,3.705,2.405,5.805,2.405s4.203-0.801,5.807-2.405
			C308.856,176.306,308.856,171.107,305.648,167.901z"/>
	</g>
</g>
<g>
	<g>
		<path d="M438.998,160.467c0-24.721-39.607-38.551-72.832-45.8c-4.435-0.968-8.806,1.842-9.773,6.272
			c-0.967,4.43,1.842,8.805,6.272,9.772c41.163,8.98,59.912,21.719,59.912,29.755c0,7.647-18.18,21.738-67.277,31.272
			c-0.164-14.561-9.47-26.572-21.459-28.386c-1.355-7.487-3.36-14.729-5.984-21.609c-1.102-2.889-3.734-4.914-6.809-5.239
			c-20.501-2.167-42.385-3.265-65.047-3.265c-22.662,0-44.546,1.098-65.047,3.265c-3.075,0.325-5.707,2.35-6.809,5.239
			c-2.624,6.883-4.63,14.124-5.984,21.609c-11.99,1.815-21.295,13.824-21.459,28.386c-49.096-9.534-67.277-23.626-67.277-31.272
			c0-10.602,32.229-28.999,103.884-36.71c19.919-2.148,41.011-3.237,62.693-3.237c21.681,0,42.773,1.089,62.694,3.237
			c7.23,0.778,14.333,1.701,21.111,2.743c4.471,0.689,8.674-2.384,9.363-6.867c0.689-4.482-2.387-8.674-6.867-9.363
			c-5.532-0.851-11.271-1.62-17.111-2.303L263.047,3.998C261.566,1.518,258.89,0,256.001,0s-5.566,1.518-7.048,3.998l-62.143,103.97
			c-32.108,3.815-113.807,17.033-113.807,52.499c0,12.585,11.548,35.416,87.723,48.717c2.425,5.893,6.204,12.965,10.999,18.166
			c-3.961,1.729-8.253,2.545-13.157,2.545c-3.353,0-6.37,2.039-7.619,5.152c-1.25,3.112-0.481,6.671,1.942,8.99
			c0.625,0.599,14.338,13.491,37.783,18.01c0.044,0.646,0.095,1.326,0.158,2.036l-7.117,42.033
			c-1.742,2.516-6.355,8.737-13.125,14.57c-10.891,9.381-21.753,13.034-32.296,10.852c-2.421-0.5-4.934,0.114-6.848,1.674
			c-1.915,1.559-3.027,3.897-3.027,6.367v4.926h-9.339l-23.736-89.145c-1.166-4.381-5.662-6.988-10.046-5.822
			c-4.382,1.167-6.989,5.665-5.821,10.046l20.282,76.171c-0.864-0.032-1.747,0.066-2.623,0.324c-4.351,1.28-6.84,5.844-5.56,10.194
			l5.474,18.611c1.052,3.578,4.324,5.896,7.873,5.896c0.766,0,1.547-0.108,2.32-0.336c0.558-0.164,1.086-0.384,1.579-0.65
			l1.261,4.738c0.979,3.674,4.298,6.1,7.928,6.1c0.7,0,1.41-0.09,2.118-0.278c4.382-1.167,6.989-5.665,5.821-10.046l-2.498-9.382
			h4.967v25.726c0,4.121,3.054,7.603,7.14,8.141c0.366,0.048,2.777,0.345,6.455,0.344c6.635,0,17.386-0.966,27.656-6.092
			l-19.195,113.374c-0.404,2.383,0.263,4.823,1.824,6.67c1.56,1.847,3.855,2.911,6.272,2.911h194.864
			c2.417,0,4.712-1.065,6.272-2.911c1.561-1.847,2.228-4.287,1.824-6.67l-19.191-113.346c10.256,5.103,20.98,6.065,27.603,6.065
			c3.678,0,6.092-0.297,6.458-0.345c4.084-0.538,7.139-4.02,7.139-8.141v-25.727h4.379v142.864c0,4.534,3.675,8.211,8.211,8.211
			s8.211-3.676,8.211-8.211V368.561c0.182,0.012,0.362,0.027,0.547,0.027c4.536,0,8.211-3.676,8.211-8.211v-13.137
			c0-4.534-3.675-8.211-8.211-8.211c-0.185,0-0.366,0.015-0.547,0.027V278.82h4.379c4.536,0,8.211-3.676,8.211-8.211
			s-3.675-8.211-8.211-8.211h-4.379v-3.48c10.785-3.477,18.611-13.604,18.611-25.53c0-14.789-12.031-26.821-26.821-26.821
			s-26.821,12.032-26.821,26.821c0,11.926,7.825,22.055,18.611,25.53v3.48h-4.379c-4.536,0-8.211,3.676-8.211,8.211
			s3.675,8.211,8.211,8.211h4.379v65.685h-4.379v-4.926c0-2.47-1.112-4.808-3.027-6.367s-4.429-2.173-6.848-1.674
			c-22.758,4.71-41.29-19.536-45.366-25.355l-5.52-32.613c0.305-3.908,0.342-7.865,0.089-11.84
			c22.505-4.775,35.634-17.108,36.241-17.688c2.425-2.319,3.194-5.878,1.945-8.991c-1.25-3.113-4.266-5.153-7.62-5.153
			c-4.903,0-9.195-0.817-13.156-2.545c4.798-5.206,8.58-12.282,11-18.167C427.448,195.882,438.998,173.052,438.998,160.467z
			 M256.001,24.215l48.869,81.764c-15.793-1.248-32.167-1.879-48.869-1.879c-16.703,0-33.078,0.631-48.87,1.879L256.001,24.215z
			 M385.727,233.388c0-5.734,4.666-10.4,10.4-10.4s10.4,4.666,10.4,10.4c0,5.734-4.666,10.4-10.4,10.4
			S385.727,239.122,385.727,233.388z M179.885,241.661c4.349-2.099,8.428-4.917,12.278-8.47c5.223-4.821,9.422-10.416,13.129-15.352
			c5.182-6.902,9.659-12.864,14.988-14.639c9.847-3.283,20.522,5.073,25.875,10.187c-6.534,12.528-21.34,33.794-39.146,33.794
			c-2.511,0-5.007-0.131-7.434-0.392C191.875,245.973,185.25,243.95,179.885,241.661z M144.84,378.678v-30.114
			c11.496-0.161,23.04-4.69,33.948-13.36l-4.903,28.958C166.236,375.686,153.023,378.276,144.84,378.678z M367.117,348.564v30.113
			c-8.169-0.401-21.328-2.981-28.99-14.42l-4.911-29.016C344.112,343.886,355.636,348.404,367.117,348.564z M343.714,495.573
			h-79.503v-37.846c0-4.534-3.675-8.211-8.211-8.211s-8.211,3.676-8.211,8.211v37.852h-79.505l33.3-196.647
			c4.122,6.664,9.761,12.812,17.493,17.301c12.068,7.011,15.592,16.052,16.423,22.403c0.934,7.131-1.163,14.462-5.416,18.792
			c-0.027,0.028-0.056,0.057-0.083,0.084c-0.003,0.003-0.007,0.007-0.01,0.01c0,0,0,0.001-0.001,0.001
			c-0.022,0.022-0.043,0.044-0.063,0.066h-0.001c-0.005,0.007-0.012,0.012-0.018,0.019c0,0,0,0-0.001,0
			c-0.002,0.003-0.005,0.007-0.009,0.009c-0.003,0.003-0.005,0.005-0.009,0.009l-0.001,0.001c-0.003,0.003-0.005,0.005-0.009,0.009
			c0,0,0,0.001-0.001,0.001c-0.002,0.003-0.004,0.005-0.008,0.009c-0.001,0.001-0.001,0.001-0.002,0.002
			c-0.002,0.002-0.004,0.004-0.007,0.008c-0.001,0.001-0.002,0.002-0.003,0.003c-0.002,0.002-0.004,0.003-0.007,0.005
			c-0.001,0.001-0.002,0.003-0.004,0.004c-0.001,0.002-0.002,0.003-0.004,0.005c-0.002,0.002-0.003,0.003-0.004,0.005
			c-0.002,0.001-0.003,0.003-0.004,0.004c-0.002,0.002-0.003,0.003-0.005,0.005c-0.001,0.002-0.002,0.003-0.004,0.004
			c-0.001,0.002-0.003,0.003-0.004,0.005c-0.002,0.001-0.003,0.002-0.004,0.003c-0.002,0.002-0.003,0.003-0.005,0.005
			c-0.001,0.001-0.002,0.002-0.003,0.004c-0.002,0.002-0.003,0.003-0.005,0.005c-0.001,0.001-0.002,0.002-0.003,0.004
			c-0.002,0.002-0.004,0.003-0.005,0.005c-0.002,0.001-0.003,0.002-0.004,0.004c-0.002,0.002-0.003,0.004-0.005,0.007
			c-0.001,0.001-0.002,0.002-0.003,0.003c-0.002,0.002-0.004,0.004-0.007,0.007c-0.001,0.001-0.001,0.002-0.002,0.002
			c-0.002,0.002-0.004,0.005-0.008,0.008c0,0.001-0.001,0.001-0.001,0.001c-0.002,0.003-0.005,0.005-0.008,0.009
			c0,0.001-0.001,0.001-0.001,0.001c-0.003,0.003-0.005,0.007-0.009,0.009c0,0,0,0.001-0.001,0.001
			c-0.002,0.003-0.004,0.005-0.008,0.009l-0.001,0.001c-0.002,0.003-0.005,0.005-0.008,0.009c0,0-0.001,0-0.001,0.001
			c-0.002,0.003-0.005,0.005-0.008,0.009c0,0-0.001,0-0.001,0.001c-2.849,3.22-2.725,8.119,0.318,11.198
			c0,0.001,0.001,0.002,0.002,0.003c0.002,0.002,0.003,0.003,0.005,0.005c0.002,0.002,0.004,0.003,0.005,0.005
			c0.001,0.001,0.002,0.001,0.003,0.002c0.02,0.02,0.039,0.039,0.06,0.059c0.357,0.353,0.739,0.667,1.14,0.94
			c0.003,0.001,0.003,0.002,0.009,0.005c0.002,0.001,0.004,0.003,0.007,0.004l0.001,0.001c1.388,0.943,2.997,1.413,4.608,1.413
			c0.247,0,0.494-0.011,0.74-0.034c0.003,0,0.007-0.001,0.013-0.001c0.002,0,0.009-0.001,0.011-0.001
			c0.005,0-0.002,0.001,0.013-0.001c0.872-0.082,1.735-0.303,2.551-0.663l0.001-0.001c0.005-0.001,0.004-0.002,0.013-0.005
			c0.003-0.001,0.009-0.003,0.012-0.005h0.001c0.021-0.009,0.041-0.019,0.061-0.027c0.888-0.381,3.983-1.744,8.494-4.084v65.923
			c0,4.534,3.675,8.211,8.211,8.211s8.211-3.676,8.211-8.211v-75.508c8.121-5.28,17.249-12.07,25.867-20.378
			c3.263-3.147,3.359-8.345,0.211-11.61c-3.146-3.263-8.342-3.36-11.61-0.212c-8.895,8.576-18.53,15.429-26.668,20.475
			c0.228-2.904,0.16-5.865-0.227-8.81c-1.849-14.143-10.536-26.385-24.459-34.473c-14.967-8.691-18.984-27.801-20.046-38.435
			c23.123-0.154,39.772-20.166,48.721-34.461c8.983,14.351,25.726,34.467,48.99,34.467c0.51,0,1.018-0.013,1.527-0.022
			c0.168,3.235,0.114,6.448-0.177,9.607c-1.164,12.518-5.983,24.758-14.324,36.378c-2.644,3.684-1.802,8.814,1.882,11.458
			c1.451,1.041,3.124,1.541,4.782,1.541c2.554,0,5.073-1.189,6.677-3.423c2.492-3.47,4.722-6.999,6.691-10.576l10.18,60.144
			c0.004,0.025,0.016,0.048,0.021,0.072L343.714,495.573z M312.909,246.733c-2.56,0.298-5.223,0.449-7.918,0.449
			c-17.806,0-32.611-21.266-39.146-33.794c5.352-5.114,16.027-13.471,25.878-10.187c5.327,1.775,9.803,7.735,14.987,14.639
			c3.706,4.936,7.906,10.529,13.129,15.353c3.847,3.55,7.923,6.366,12.269,8.466C326.857,243.899,320.4,245.883,312.909,246.733z
			 M337.425,199.345c-2.728,8.385-7.396,15.235-10.215,17.904c-2.604-2.932-5.017-6.132-7.37-9.266
			c-6.262-8.341-12.738-16.965-22.926-20.358c-12.452-4.15-24.084,0.378-32.702,6.06v-2.654c0-4.534-3.675-8.211-8.211-8.211
			s-8.211,3.676-8.211,8.211v2.649c-8.617-5.683-20.249-10.211-32.7-6.06c-10.191,3.394-16.666,12.018-22.928,20.358
			c-2.354,3.134-4.766,6.335-7.371,9.267c-2.818-2.669-7.488-9.523-10.223-17.932c-0.928-2.818-1.46-5.438-1.46-7.186
			c-0.002-3.658,1.051-6.763,2.582-8.977l-0.106,0.971c-0.49,4.508,2.764,8.561,7.273,9.052c0.302,0.033,0.602,0.049,0.899,0.049
			c4.136,0,7.694-3.116,8.153-7.322l1.426-13.083c0-0.003,0-0.005,0-0.009c0.858-7.092,2.361-13.963,4.484-20.49
			c18.437-1.763,37.98-2.656,58.18-2.656s39.744,0.893,58.18,2.656c2.121,6.521,3.622,13.389,4.483,20.479
			c0,0.007,0,0.014,0.001,0.021l1.428,13.083c0.459,4.206,4.017,7.322,8.153,7.322c0.297,0,0.598-0.016,0.9-0.049
			c4.507-0.492,7.764-4.544,7.272-9.052l-0.106-0.97c1.531,2.215,2.584,5.32,2.584,8.977
			C338.894,193.88,338.362,196.499,337.425,199.345z"/>
	</g>
</g>
<g>
</g>
<g>
</g>
<g>
</g>
<g>
</g>
<g>
</g>
<g>
</g>
<g>
</g>
<g>
</g>
<g>
</g>
<g>
</g>
<g>
</g>
<g>
</g>
<g>
</g>
<g>
</g>
<g>
</g>
</svg>
